# xmcd CD database file
#
# Track frame offsets:
#	150
#	24419
#	46154
#	85519
#	122020
#	157141
#	186615
#	203610
#	231789
#	265755
#
# Disc length: 3957 seconds
#
# Revision: 0
# Processed by: cddbd v1.5.2PL0 Copyright (c) Steve Scherf et al.
# Submitted via: CDex 1.70beta2
#
DISCID=7c0f730a
DTITLE=Hewar - 9 Days of Solitude. The Damascus Session
DYEAR=2006
DGENRE=Jazz
TTITLE0=Wedding
TTITLE1=Zar
TTITLE2=4 Days Later
TTITLE3=Arabesque
TTITLE4=Airports
TTITLE5=Love on 139th Street in D
TTITLE6=Monterosa
TTITLE7=Neyanana
TTITLE8=Viva el Chechenia
TTITLE9=Thruth in Mirror
EXTD=YEAR: 2006
EXTT0=
EXTT1=
EXTT2=
EXTT3=
EXTT4=
EXTT5=
EXTT6=
EXTT7=
EXTT8=
EXTT9=
PLAYORDER=
